HIERARCHY
ROOT Hips
{
 OFFSET 0.000000 0.000000 0.000000
 CHANNELS 6 Xposition Yposition Zposition Yrotation Xrotation Zrotation
 JOINT Chest
 {
  OFFSET 0.000000 9.585900 0.002600
  CHANNELS 3 Yrotation Xrotation Zrotation
  JOINT Chest2
  {
   OFFSET 0.000000 9.601200 -0.005300
   CHANNELS 3 Yrotation Xrotation Zrotation
   JOINT Chest3
   {
    OFFSET 0.000000 9.561800 0.000000
    CHANNELS 3 Yrotation Xrotation Zrotation
    JOINT Chest4
    {
     OFFSET 0.000000 9.552100 0.000000
     CHANNELS 3 Yrotation Xrotation Zrotation
     JOINT Neck
     {
      OFFSET 0.000000 14.453000 0.000000
      CHANNELS 3 Yrotation Xrotation Zrotation
      JOINT Head
      {
       OFFSET 0.000000 8.936500 -0.011300
       CHANNELS 3 Yrotation Xrotation Zrotation
       End Site
       {
        OFFSET 0.000000 17.073600 -0.006000
       }
      }
     }
     JOINT RightCollar
     {
      OFFSET -2.921100 9.558500 0.000000
      CHANNELS 3 Yrotation Xrotation Zrotation
      JOINT RightShoulder
      {
       OFFSET -13.519700 0.000000 0.000000
       CHANNELS 3 Yrotation Xrotation Zrotation
       JOINT RightElbow
       {
        OFFSET 0.000000 -29.696600 0.000000
        CHANNELS 3 Yrotation Xrotation Zrotation
        JOINT RightWrist
        {
         OFFSET 0.000000 -24.004700 0.000000
         CHANNELS 3 Yrotation Xrotation Zrotation
         End Site
         {
          OFFSET 0.000000 -17.728500 0.000000
         }
        }
       }
      }
     }
     JOINT LeftCollar
     {
      OFFSET 2.921100 9.558500 0.000000
      CHANNELS 3 Yrotation Xrotation Zrotation
      JOINT LeftShoulder
      {
       OFFSET 13.519700 0.000000 0.000000
       CHANNELS 3 Yrotation Xrotation Zrotation
       JOINT LeftElbow
       {
        OFFSET 0.000000 -29.696600 0.000000
        CHANNELS 3 Yrotation Xrotation Zrotation
        JOINT LeftWrist
        {
         OFFSET 0.000000 -24.004700 0.000000
         CHANNELS 3 Yrotation Xrotation Zrotation
         End Site
         {
          OFFSET 0.000000 -17.728500 0.000000
         }
        }
       }
      }
     }
    }
   }
  }
 }
 JOINT RightHip
 {
  OFFSET -7.771700 -0.012900 -0.001300
  CHANNELS 3 Yrotation Xrotation Zrotation
  JOINT RightKnee
  {
   OFFSET 0.000000 -40.869800 0.001200
   CHANNELS 3 Yrotation Xrotation Zrotation
   JOINT RightAnkle
   {
    OFFSET 0.000000 -39.717900 0.002100
    CHANNELS 3 Yrotation Xrotation Zrotation
    JOINT RightToe
    {
     OFFSET 0.000000 -4.965400 11.033500
     CHANNELS 3 Yrotation Xrotation Zrotation
     End Site
     {
      OFFSET 0.000000 -1.423100 5.872300
     }
    }
   }
  }
 }
 JOINT LeftHip
 {
  OFFSET 7.771700 -0.012900 -0.001300
  CHANNELS 3 Yrotation Xrotation Zrotation
  JOINT LeftKnee
  {
   OFFSET 0.000000 -40.869800 0.001200
   CHANNELS 3 Yrotation Xrotation Zrotation
   JOINT LeftAnkle
   {
    OFFSET 0.000000 -39.717900 0.002100
    CHANNELS 3 Yrotation Xrotation Zrotation
    JOINT LeftToe
    {
     OFFSET 0.000000 -4.965400 11.033500
     CHANNELS 3 Yrotation Xrotation Zrotation
     End Site
     {
      OFFSET 0.000000 -1.423100 5.872300
     }
    }
   }
  }
 }
}
MOTION
Frames: 11
Frame Time: 0.008333
-33.827071 57.880690 12.642563 178.172547 -47.806341 -3.300607 3.028586 22.041956 2.392042 1.575734 12.612621 1.238408 2.028111 15.765806 1.616215 1.577637 12.614121 1.239619 0.362816 14.366578 3.793850 -0.766960 -9.024548 6.987855 3.194676 2.711188 -0.960489 0.048565 -14.628730 -8.595388 12.750526 -78.536600 21.547492 30.239185 12.919330 0.723434 -8.775900 -1.051320 -0.684225 -0.654439 -12.629404 12.244748 -10.653349 -75.631822 -21.626151 -20.042050 10.593453 1.982985 2.258303 -23.947115 -3.884346 -33.882169 73.749962 -37.921257 6.620849 -13.962692 11.233723 0.023026 -0.045819 0.004420 -5.431686 -21.235365 5.472813 87.557282 82.682068 88.060673 0.858874 -22.127213 -17.570624 0.013968 0.043078 0.000297
-33.825292 57.881821 12.642288 178.163365 -47.805191 -3.297779 3.032491 22.042959 2.393291 1.577980 12.614169 1.239948 2.031813 15.766372 1.616814 1.578942 12.617415 1.240294 0.354551 14.372919 3.790960 -0.768752 -9.031920 6.986461 3.188780 2.698720 -0.963833 0.029965 -14.627032 -8.548160 12.850297 -78.501905 21.464324 30.237122 12.919250 0.701869 -8.787258 -1.056808 -0.678079 -0.650639 -12.620403 12.244112 -10.709983 -75.632326 -21.562951 -20.038962 10.586857 1.992974 2.259632 -23.949281 -3.878009 -33.868395 73.753528 -37.909789 6.607680 -13.965296 11.234386 0.018374 -0.046810 0.004434 -5.427821 -21.234421 5.484131 87.533350 82.689604 88.033865 0.860230 -22.124206 -17.568045 0.013723 0.041599 0.000793
-33.824193 57.882470 12.642317 178.156530 -47.799824 -3.294455 3.038914 22.040818 2.396292 1.578878 12.622486 1.241215 2.030041 15.755984 1.614849 1.579754 12.622307 1.240727 0.350785 14.371269 3.789247 -0.786061 -9.023124 6.983813 3.186559 2.689612 -0.965383 0.016644 -14.625998 -8.526103 12.837944 -78.474064 21.488365 30.238782 12.914787 0.684807 -8.801728 -1.052744 -0.667469 -0.643765 -12.619804 12.241659 -10.818537 -75.623021 -21.447228 -20.021956 10.566831 2.004816 2.256895 -23.954475 -3.873774 -33.856938 73.754273 -37.899555 6.595724 -13.973577 11.227631 0.029842 -0.040902 0.009857 -5.425542 -21.237135 5.490876 87.511482 82.693932 88.009993 0.860390 -22.125691 -17.567643 0.014656 0.043241 0.002001
-33.823931 57.883994 12.641341 178.163339 -47.801440 -3.298540 3.034065 22.054020 2.398408 1.579625 12.618572 1.240636 2.028819 15.757048 1.612341 1.579714 12.616399 1.240278 0.344711 14.378783 3.787463 -0.798106 -9.021690 6.982239 3.186547 2.684239 -0.964863 0.002167 -14.624734 -8.508199 12.872916 -78.459223 21.465362 30.239742 12.910984 0.678162 -8.828362 -1.039205 -0.653201 -0.620603 -12.626446 12.235767 -10.879400 -75.620554 -21.378176 -20.009001 10.552319 2.009319 2.248354 -23.949362 -3.876575 -33.868623 73.756207 -37.910038 6.597828 -13.986312 11.223945 0.018457 -0.044769 0.008733 -5.430683 -21.234641 5.495232 87.506455 82.699165 88.002935 0.858177 -22.125723 -17.570207 0.017784 0.042325 0.006579
-33.823877 57.885160 12.640527 178.162582 -47.801002 -3.298939 3.036778 22.058771 2.402858 1.579184 12.620395 1.240708 2.030143 15.767044 1.616231 1.578344 12.612534 1.239315 0.335798 14.377061 3.783576 -0.834759 -9.022032 6.980060 3.185232 2.666221 -0.974844 -0.013062 -14.620791 -8.486533 12.911555 -78.445912 21.435868 30.217968 12.915546 0.664432 -8.835032 -1.050787 -0.654460 -0.618212 -12.622617 12.239808 -10.917300 -75.618059 -21.332145 -20.003874 10.541789 2.009796 2.247083 -23.949376 -3.877364 -33.862838 73.758542 -37.903666 6.596555 -13.989304 11.222903 0.024270 -0.047339 0.008979 -5.426439 -21.233008 5.498712 87.485222 82.702955 87.984420 0.857757 -22.127447 -17.572332 0.019585 0.042902 0.009255
-33.825646 57.885546 12.640062 178.160021 -47.795656 -3.290594 3.036206 22.059790 2.396646 1.578693 12.621859 1.240663 2.030248 15.761601 1.615615 1.579229 12.620439 1.240406 0.328042 14.375069 3.781966 -0.838921 -9.029275 6.979754 3.176254 2.649575 -0.980513 -0.016163 -14.613723 -8.466396 12.912945 -78.427210 21.444558 30.203630 12.917974 0.643236 -8.848701 -1.053913 -0.645900 -0.604062 -12.628119 12.233403 -10.958099 -75.613649 -21.284704 -20.007454 10.540736 2.011285 2.245686 -23.956558 -3.897258 -33.815202 73.769051 -37.858699 6.624924 -13.994410 11.222824 -0.007844 -0.051862 0.000646 -5.419993 -21.238897 5.491899 87.480221 82.694107 87.979528 0.849175 -22.126647 -17.570823 0.018127 0.042332 0.009446
-33.827477 57.885276 12.640019 178.160841 -47.785789 -3.287858 3.031445 22.056824 2.391456 1.580136 12.619351 1.240431 2.032918 15.767323 1.618096 1.578805 12.622034 1.241163 0.307140 14.373217 3.779901 -0.830844 -9.039094 6.975523 3.174380 2.637054 -0.983826 -0.023107 -14.609488 -8.449767 12.842611 -78.401505 21.514659 30.227467 12.907842 0.633107 -8.864394 -1.056586 -0.638348 -0.591896 -12.627747 12.229802 -10.974572 -75.618849 -21.256872 -20.004854 10.537772 2.011878 2.244959 -23.967269 -3.904312 -33.831068 73.768652 -37.871977 6.621873 -14.000380 11.222246 -0.002225 -0.047405 0.000888 -5.416686 -21.249139 5.487849 87.451458 82.693288 87.953901 0.844895 -22.126527 -17.572136 0.019862 0.043824 0.011959
-33.828915 57.885722 12.639189 178.158740 -47.782767 -3.288186 3.031532 22.059014 2.393497 1.579200 12.618391 1.237950 2.029420 15.772679 1.616079 1.578170 12.623007 1.239956 0.302028 14.364694 3.782338 -0.839584 -9.049836 6.972971 3.180683 2.621639 -0.984417 -0.027442 -14.599878 -8.433156 12.815658 -78.387122 21.538959 30.240809 12.902481 0.624886 -8.875836 -1.060662 -0.623852 -0.578985 -12.625535 12.222702 -10.965557 -75.624227 -21.254214 -20.007649 10.538317 2.010937 2.244149 -23.971698 -3.906339 -33.831577 73.773277 -37.871782 6.634219 -14.009125 11.218383 -0.010965 -0.045429 0.001102 -5.413421 -21.251349 5.487880 87.451893 82.692486 87.957271 0.849005 -22.126344 -17.576087 0.020868 0.042460 0.013240
-33.831777 57.886060 12.638127 178.158164 -47.780418 -3.283471 3.029524 22.061097 2.391044 1.574224 12.625475 1.239739 2.027559 15.770583 1.611884 1.571947 12.630466 1.244515 0.297765 14.348459 3.775579 -0.851197 -9.061805 6.970117 3.186661 2.595444 -0.992259 -0.027245 -14.584024 -8.421393 12.852222 -78.383339 21.503623 30.225439 12.897919 0.614359 -8.898110 -1.064260 -0.604497 -0.541185 -12.628140 12.197332 -11.022680 -75.624981 -21.184630 -20.006630 10.522726 2.001080 2.248131 -23.975228 -3.918074 -33.827530 73.781273 -37.864052 6.637024 -14.019811 11.214156 0.007430 -0.044030 0.004815 -5.410157 -21.253365 5.482487 87.460095 82.693663 87.961416 0.854632 -22.127272 -17.575103 0.018253 0.042818 0.012918
-33.834744 57.886076 12.637196 178.155523 -47.776846 -3.278286 3.027589 22.062224 2.389894 1.573026 12.626204 1.240413 2.024998 15.770752 1.608998 1.572508 12.632035 1.248625 0.292237 14.341287 3.769755 -0.876532 -9.073618 6.975294 3.185192 2.584860 -1.001011 -0.032645 -14.573994 -8.403685 12.896637 -78.379763 21.464899 30.183887 12.900389 0.592926 -8.907653 -1.067810 -0.598181 -0.520586 -12.597644 12.188859 -11.052873 -75.647661 -21.145430 -20.009101 10.508353 1.995504 2.253369 -23.979022 -3.924811 -33.827714 73.786043 -37.862435 6.627986 -14.030850 11.211532 0.013050 -0.040564 0.009001 -5.406172 -21.257477 5.476807 87.459830 82.691746 87.961455 0.853739 -22.124565 -17.577604 0.017137 0.040664 0.014556
-33.837332 57.886247 12.636053 178.153795 -47.775771 -3.276924 3.025807 22.065070 2.390818 1.572542 12.626861 1.241086 2.022224 15.779563 1.618448 1.572229 12.627233 1.241419 0.286739 14.332455 3.764230 -0.903638 -9.089629 6.978347 3.183437 2.574503 -1.009854 -0.041347 -14.565118 -8.383412 12.898754 -78.369580 21.466546 30.182315 12.896818 0.583703 -8.917036 -1.071690 -0.592960 -0.505394 -12.593488 12.177808 -11.102079 -75.641703 -21.091762 -20.004472 10.493392 1.997727 2.256353 -23.980082 -3.926997 -33.827551 73.789977 -37.861474 6.620575 -14.037208 11.210991 -0.001295 -0.048331 0.007054 -5.403489 -21.258766 5.474844 87.469775 82.695446 87.971187 0.857564 -22.125399 -17.576707 0.015985 0.040695 0.013536
